<svg width="522" height="95" viewBox="0 0 522 95" fill="none" xmlns="http://www.w3.org/2000/svg">
<path d="M49.6609 20.82C49.9809 21.46 50.1609 22.06 50.2009 22.62C50.2809 23.18 50.3209 24.2 50.3209 25.68C50.3209 27.16 49.6609 32.42 48.3409 41.46C47.0209 50.5 46.3609 56.84 46.3609 60.48C46.3609 64.08 46.6409 66.54 47.2009 67.86C43.8009 66.98 41.4809 65.82 40.2409 64.38C39.0009 62.9 38.3809 60.86 38.3809 58.26C38.3809 56.74 38.8009 52.88 39.6409 46.68C41.1209 36.4 41.8609 28.44 41.8609 22.8C41.8609 21.6 41.7809 19.96 41.6209 17.88C44.6609 18.04 46.8809 18.52 48.2809 19.32C48.8809 19.64 49.3409 20.14 49.6609 20.82ZM39.2209 13.14C40.3009 10.7 42.0209 8.18 44.3809 5.57999C46.7409 2.94 49.0409 1.16 51.2809 0.239995C53.6809 1.75999 54.9409 3.9 55.0609 6.66C52.5409 7.34 50.0609 8.5 47.6209 10.14C45.2209 11.74 43.2609 13.4 41.7409 15.12C41.1009 15 40.5409 14.76 40.0609 14.4C39.5809 14 39.3009 13.58 39.2209 13.14ZM71.0659 37.8C70.8659 39.24 70.4459 41.74 69.8059 45.3C68.4459 52.86 67.7659 58.46 67.7659 62.1C67.7659 65.74 68.0459 68.18 68.6059 69.42C65.5259 68.62 63.4059 67.4 62.2459 65.76C61.0859 64.08 60.5059 61.72 60.5059 58.68C60.5059 56 60.9259 52.34 61.7659 47.7C62.6059 43.02 63.1459 39.86 63.3859 38.22C61.3059 38.58 59.0859 39.28 56.7259 40.32C56.6459 39.44 56.6059 38.78 56.6059 38.34C56.6059 36.22 57.2459 34.78 58.5259 34.02C59.8059 33.22 61.6459 32.8 64.0459 32.76C64.3259 29.76 64.4659 27.6 64.4659 26.28C64.4659 24.96 64.4459 23.86 64.4059 22.98C64.4059 22.1 64.4059 21.44 64.4059 21C67.0459 21.28 68.9659 22.08 70.1659 23.4C71.3659 24.68 71.9659 26.52 71.9659 28.92C71.9659 29.88 71.8659 31.22 71.6659 32.94C75.0259 32.86 77.4859 32.2 79.0459 30.96C79.1259 31.76 79.1659 32.36 79.1659 32.76C79.1659 34.68 78.8259 36.02 78.1459 36.78C77.4659 37.5 76.3259 37.86 74.7259 37.86C73.1259 37.86 71.9059 37.84 71.0659 37.8ZM88.8104 54.66C88.8104 56.54 89.1504 58.08 89.8304 59.28C90.5504 60.44 91.5504 61.02 92.8304 61.02C94.7104 61.02 96.4904 59.92 98.1704 57.72C99.8904 55.52 101.25 52.7 102.25 49.26C103.29 45.82 103.81 42.56 103.81 39.48C103.81 36.36 103.69 33.84 103.45 31.92C104.65 31.84 105.49 31.8 105.97 31.8C108.01 31.8 109.55 32.18 110.59 32.94C111.63 33.7 112.15 35.06 112.15 37.02C112.15 37.78 111.67 40.88 110.71 46.32C109.75 51.72 109.27 56.06 109.27 59.34C109.27 62.58 109.89 65.46 111.13 67.98C108.13 67.46 105.93 66.36 104.53 64.68C103.13 62.96 102.43 60.5 102.43 57.3C102.43 56.74 102.51 55.66 102.67 54.06C101.59 57.86 99.6704 60.92 96.9104 63.24C94.1504 65.56 91.4304 66.72 88.7504 66.72C86.1104 66.72 83.9704 65.74 82.3304 63.78C80.7304 61.78 79.9304 58.96 79.9304 55.32C79.9304 51.68 80.5704 48.16 81.8504 44.76C83.1704 41.32 85.1304 38.42 87.7304 36.06C90.3304 33.66 93.2304 32.46 96.4304 32.46C98.2704 32.46 100.15 32.9 102.07 33.78C98.0304 35.22 94.8104 38.06 92.4104 42.3C90.0104 46.5 88.8104 50.62 88.8104 54.66ZM120.836 64.5C120.356 63.7 120.056 62.94 119.936 62.22C119.816 61.46 119.756 60.3 119.756 58.74C119.756 57.18 120.416 51.04 121.736 40.32C123.096 29.6 123.776 22.24 123.776 18.24C123.776 14.24 123.536 11.64 123.056 10.44C126.056 11.24 128.096 12.46 129.176 14.1C130.296 15.7 130.856 17.98 130.856 20.94C130.856 22.7 130.276 28.42 129.116 38.1C127.956 47.78 127.376 55.58 127.376 61.5C127.376 62.78 127.456 64.58 127.616 66.9C123.976 66.74 121.716 65.94 120.836 64.5ZM155.326 35.94C152.726 35.94 150.406 37.7 148.366 41.22C146.326 44.7 145.306 48.18 145.306 51.66C145.306 58.94 147.186 62.58 150.946 62.58C153.626 62.58 155.806 60.84 157.486 57.36C159.166 53.84 160.006 49.9 160.006 45.54C160.006 39.14 158.446 35.94 155.326 35.94ZM150.226 30.54C150.666 30.54 151.066 30.68 151.426 30.96C151.826 31.2 152.026 31.46 152.026 31.74C147.986 34.54 145.566 38.44 144.766 43.44C145.606 41.2 146.626 39.26 147.826 37.62C149.066 35.98 150.346 34.74 151.666 33.9C154.186 32.34 156.646 31.56 159.046 31.56C161.446 31.56 163.486 32.74 165.166 35.1C166.846 37.46 167.686 40.62 167.686 44.58C167.686 49.02 166.786 53.1 164.986 56.82C162.986 61.02 160.146 63.92 156.466 65.52C154.386 66.44 152.106 66.9 149.626 66.9C146.146 66.9 143.106 65.56 140.506 62.88C137.946 60.16 136.666 56.28 136.666 51.24C136.666 46.16 137.906 41.7 140.386 37.86C142.866 33.98 146.146 31.54 150.226 30.54ZM207.302 81.36C213.982 81.36 217.782 73.5 218.702 57.78C217.222 59.9 215.442 61.52 213.362 62.64C211.282 63.72 209.142 64.26 206.942 64.26C203.102 64.26 199.802 62.7 197.042 59.58C194.282 56.46 192.902 52.12 192.902 46.56C192.902 38.92 194.882 32.28 198.842 26.64C200.762 23.88 203.242 21.7 206.282 20.1C209.322 18.46 212.782 17.64 216.662 17.64C220.582 17.64 223.562 18.66 225.602 20.7C227.682 22.7 228.722 25.18 228.722 28.14C228.722 31.1 227.802 33.44 225.962 35.16C224.122 36.88 221.942 37.74 219.422 37.74C217.782 37.74 216.222 37.34 214.742 36.54C213.262 35.74 212.122 34.58 211.322 33.06C212.402 33.34 213.422 33.48 214.382 33.48C216.542 33.48 218.242 32.86 219.482 31.62C220.762 30.38 221.402 28.98 221.402 27.42C221.402 25.86 220.882 24.58 219.842 23.58C218.802 22.54 217.322 22.02 215.402 22.02C212.882 22.02 210.582 23.32 208.502 25.92C206.462 28.48 204.922 31.6 203.882 35.28C202.842 38.92 202.322 42.7 202.322 46.62C202.322 50.54 203.082 53.62 204.602 55.86C206.162 58.06 208.042 59.16 210.242 59.16C212.442 59.16 214.342 58.08 215.942 55.92C217.582 53.76 218.402 50.84 218.402 47.16C218.402 46.24 218.342 45.3 218.222 44.34V44.16C219.102 44.08 220.022 44.04 220.982 44.04C223.302 44.04 224.902 44.44 225.782 45.24C226.702 46 227.162 47.32 227.162 49.2C227.162 61.4 224.982 70.92 220.622 77.76C219.102 80.12 217.122 82.04 214.682 83.52C212.242 85 209.482 85.74 206.402 85.74C202.202 85.74 199.042 84.66 196.922 82.5C194.842 80.38 193.802 77.94 193.802 75.18C193.802 72.42 194.542 70.2 196.022 68.52C197.502 66.88 199.342 66.06 201.542 66.06C202.742 66.06 204.062 66.4 205.502 67.08C203.382 69.76 202.322 72.58 202.322 75.54C202.322 77.26 202.722 78.66 203.522 79.74C204.322 80.82 205.582 81.36 207.302 81.36ZM253.353 35.94C250.753 35.94 248.433 37.7 246.393 41.22C244.353 44.7 243.333 48.18 243.333 51.66C243.333 58.94 245.213 62.58 248.973 62.58C251.653 62.58 253.833 60.84 255.513 57.36C257.193 53.84 258.033 49.9 258.033 45.54C258.033 39.14 256.473 35.94 253.353 35.94ZM248.253 30.54C248.693 30.54 249.093 30.68 249.453 30.96C249.853 31.2 250.053 31.46 250.053 31.74C246.013 34.54 243.593 38.44 242.793 43.44C243.633 41.2 244.653 39.26 245.853 37.62C247.093 35.98 248.373 34.74 249.693 33.9C252.213 32.34 254.673 31.56 257.073 31.56C259.473 31.56 261.513 32.74 263.193 35.1C264.873 37.46 265.713 40.62 265.713 44.58C265.713 49.02 264.813 53.1 263.013 56.82C261.013 61.02 258.173 63.92 254.493 65.52C252.413 66.44 250.133 66.9 247.653 66.9C244.173 66.9 241.133 65.56 238.533 62.88C235.973 60.16 234.693 56.28 234.693 51.24C234.693 46.16 235.933 41.7 238.413 37.86C240.893 33.98 244.173 31.54 248.253 30.54ZM247.173 26.88C248.253 24.44 249.973 21.92 252.333 19.32C254.693 16.68 256.993 14.9 259.233 13.98C261.633 15.5 262.893 17.64 263.013 20.4C260.493 21.08 258.013 22.24 255.573 23.88C253.173 25.48 251.213 27.14 249.693 28.86C249.053 28.74 248.493 28.5 248.013 28.14C247.533 27.74 247.253 27.32 247.173 26.88ZM284.145 36.18C284.145 36.78 283.645 39.94 282.645 45.66C281.685 51.34 281.185 56.04 281.145 59.76C281.145 63.44 281.385 65.82 281.865 66.9C278.745 66.1 276.645 64.9 275.565 63.3C274.485 61.66 273.945 59.28 273.945 56.16C273.945 54.48 274.265 51.44 274.905 47.04C275.545 42.64 275.865 39.22 275.865 36.78C275.865 34.34 275.745 32.46 275.505 31.14C276.385 31.06 277.205 31.02 277.965 31.02C280.285 31.02 281.885 31.42 282.765 32.22C283.685 32.98 284.145 34.3 284.145 36.18ZM285.045 25.74C283.925 25.9 282.945 25.98 282.105 25.98C277.985 25.98 275.925 24.54 275.925 21.66C275.925 20.62 276.225 19.2 276.825 17.4C277.945 17.24 278.925 17.16 279.765 17.16C283.885 17.16 285.945 18.6 285.945 21.48C285.945 22.52 285.645 23.94 285.045 25.74ZM305.042 34.92C303.922 34.92 302.922 35.3 302.042 36.06C301.162 36.78 300.722 37.82 300.722 39.18C300.722 40.54 301.182 41.82 302.102 43.02C303.062 44.22 304.222 45.28 305.582 46.2C306.942 47.08 308.302 48 309.662 48.96C311.062 49.88 312.282 51.04 313.322 52.44C314.362 53.8 314.942 55.32 315.062 57C315.062 59.88 313.822 62.3 311.342 64.26C308.862 66.22 305.782 67.2 302.102 67.2C298.422 67.2 295.522 66.46 293.402 64.98C291.322 63.5 290.282 61.8 290.282 59.88C290.282 57.96 290.862 56.42 292.022 55.26C293.222 54.06 294.702 53.46 296.462 53.46C297.382 53.46 298.242 53.62 299.042 53.94C297.762 55.3 297.122 56.74 297.122 58.26C297.122 59.78 297.542 61 298.382 61.92C299.222 62.84 300.362 63.3 301.802 63.3C303.242 63.3 304.442 62.94 305.402 62.22C306.402 61.46 306.902 60.5 306.902 59.34C306.902 58.14 306.562 57.08 305.882 56.16C305.202 55.24 304.342 54.44 303.302 53.76C302.302 53.04 301.202 52.24 300.002 51.36C298.802 50.48 297.682 49.6 296.642 48.72C295.642 47.8 294.802 46.66 294.122 45.3C293.442 43.9 293.102 42.38 293.102 40.74C293.102 37.9 294.262 35.58 296.582 33.78C298.942 31.94 301.862 31.02 305.342 31.02C308.862 31.02 311.422 31.7 313.022 33.06C314.662 34.42 315.482 36.02 315.482 37.86C315.482 39.66 314.902 41.2 313.742 42.48C312.622 43.76 311.162 44.4 309.362 44.4C308.482 44.4 307.482 44.22 306.362 43.86C307.242 43.1 307.922 42.24 308.402 41.28C308.882 40.28 309.122 39.3 309.122 38.34C309.122 37.38 308.722 36.58 307.922 35.94C307.122 35.26 306.162 34.92 305.042 34.92Z" fill="white"/>
<path d="M339.543 41.2695H336.543V53H335.383V41.2695H333.016V40.5898L335.383 40.1562V39.1719C335.383 37.6094 335.668 36.4648 336.238 35.7383C336.816 35.0039 337.758 34.6367 339.062 34.6367C339.766 34.6367 340.469 34.7422 341.172 34.9531L340.902 35.9609C340.277 35.7656 339.656 35.668 339.039 35.668C338.133 35.668 337.488 35.9375 337.105 36.4766C336.73 37.0078 336.543 37.875 336.543 39.0781V40.2617H339.543V41.2695ZM347.02 40.0156C347.559 40.0156 348.137 40.0703 348.754 40.1797L348.531 41.293C348 41.1602 347.449 41.0938 346.879 41.0938C345.793 41.0938 344.902 41.5547 344.207 42.4766C343.512 43.3984 343.164 44.5625 343.164 45.9688V53H342.004V40.2617H342.988L343.105 42.5586H343.188C343.711 41.6211 344.27 40.9648 344.863 40.5898C345.457 40.207 346.176 40.0156 347.02 40.0156ZM361.891 46.6133C361.891 48.6914 361.387 50.3164 360.379 51.4883C359.371 52.6523 357.98 53.2344 356.207 53.2344C355.09 53.2344 354.105 52.9648 353.254 52.4258C352.402 51.8867 351.75 51.1133 351.297 50.1055C350.844 49.0977 350.617 47.9336 350.617 46.6133C350.617 44.5352 351.121 42.918 352.129 41.7617C353.137 40.5977 354.52 40.0156 356.277 40.0156C358.027 40.0156 359.398 40.6055 360.391 41.7852C361.391 42.957 361.891 44.5664 361.891 46.6133ZM351.836 46.6133C351.836 48.3633 352.219 49.7305 352.984 50.7148C353.758 51.6914 354.848 52.1797 356.254 52.1797C357.66 52.1797 358.746 51.6914 359.512 50.7148C360.285 49.7305 360.672 48.3633 360.672 46.6133C360.672 44.8555 360.281 43.4922 359.5 42.5234C358.727 41.5547 357.637 41.0703 356.23 41.0703C354.824 41.0703 353.738 41.5547 352.973 42.5234C352.215 43.4844 351.836 44.8477 351.836 46.6133ZM374.301 53V44.7383C374.301 43.457 374.031 42.5273 373.492 41.9492C372.953 41.3633 372.117 41.0703 370.984 41.0703C369.461 41.0703 368.344 41.457 367.633 42.2305C366.93 42.9961 366.578 44.2422 366.578 45.9688V53H365.418V40.2617H366.402L366.625 42.0078H366.695C367.523 40.6797 368.996 40.0156 371.113 40.0156C374.004 40.0156 375.449 41.5664 375.449 44.668V53H374.301ZM382.938 52.2031C383.672 52.2031 384.312 52.1406 384.859 52.0156V52.9531C384.297 53.1406 383.648 53.2344 382.914 53.2344C381.789 53.2344 380.957 52.9336 380.418 52.332C379.887 51.7305 379.621 50.7852 379.621 49.4961V41.2695H377.734V40.5898L379.621 40.0625L380.207 37.1797H380.805V40.2617H384.543V41.2695H380.805V49.332C380.805 50.3086 380.977 51.0312 381.32 51.5C381.664 51.9688 382.203 52.2031 382.938 52.2031ZM386.559 47V46.0391H392.125V47H386.559ZM400.492 53.2344C398.641 53.2344 397.195 52.6641 396.156 51.5234C395.125 50.3828 394.609 48.7852 394.609 46.7305C394.609 44.6992 395.109 43.0742 396.109 41.8555C397.109 40.6289 398.457 40.0156 400.152 40.0156C401.652 40.0156 402.836 40.5391 403.703 41.5859C404.57 42.6328 405.004 44.0547 405.004 45.8516V46.7891H395.828C395.844 48.5391 396.25 49.875 397.047 50.7969C397.852 51.7188 399 52.1797 400.492 52.1797C401.219 52.1797 401.855 52.1289 402.402 52.0273C402.957 51.9258 403.656 51.707 404.5 51.3711V52.4258C403.781 52.7383 403.117 52.9492 402.508 53.0586C401.898 53.1758 401.227 53.2344 400.492 53.2344ZM400.152 41.0469C398.926 41.0469 397.941 41.4531 397.199 42.2656C396.457 43.0703 396.023 44.2344 395.898 45.7578H403.773C403.773 44.2812 403.453 43.1289 402.812 42.3008C402.172 41.4648 401.285 41.0469 400.152 41.0469ZM417.402 53V44.7383C417.402 43.457 417.133 42.5273 416.594 41.9492C416.055 41.3633 415.219 41.0703 414.086 41.0703C412.562 41.0703 411.445 41.457 410.734 42.2305C410.031 42.9961 409.68 44.2422 409.68 45.9688V53H408.52V40.2617H409.504L409.727 42.0078H409.797C410.625 40.6797 412.098 40.0156 414.215 40.0156C417.105 40.0156 418.551 41.5664 418.551 44.668V53H417.402ZM427.34 40.0156C428.262 40.0156 429.059 40.1836 429.73 40.5195C430.402 40.8555 431.004 41.4297 431.535 42.2422H431.605C431.559 41.2578 431.535 40.293 431.535 39.3477V34.7656H432.684V53H431.922L431.629 51.0547H431.535C430.566 52.5078 429.176 53.2344 427.363 53.2344C425.605 53.2344 424.262 52.6875 423.332 51.5938C422.402 50.5 421.938 48.9062 421.938 46.8125C421.938 44.6094 422.398 42.9258 423.32 41.7617C424.242 40.5977 425.582 40.0156 427.34 40.0156ZM427.34 41.0703C425.949 41.0703 424.902 41.5586 424.199 42.5352C423.504 43.5117 423.156 44.9297 423.156 46.7891C423.156 50.3984 424.559 52.2031 427.363 52.2031C428.801 52.2031 429.855 51.7852 430.527 50.9492C431.199 50.1133 431.535 48.7344 431.535 46.8125V46.6133C431.535 44.6445 431.203 43.2305 430.539 42.3711C429.883 41.5039 428.816 41.0703 427.34 41.0703ZM438.297 50.2109L438.438 50.457C437.852 52.5273 437.172 54.4062 436.398 56.0938H435.637C436.238 53.9453 436.668 51.9844 436.926 50.2109H438.297ZM449.371 40.2617V48.5117C449.371 49.793 449.641 50.7266 450.18 51.3125C450.719 51.8906 451.555 52.1797 452.688 52.1797C454.203 52.1797 455.316 51.7969 456.027 51.0312C456.746 50.2656 457.105 49.0195 457.105 47.293V40.2617H458.254V53H457.27L457.059 51.2422H456.988C456.16 52.5703 454.688 53.2344 452.57 53.2344C449.672 53.2344 448.223 51.6836 448.223 48.582V40.2617H449.371ZM465.648 46.4492L461.207 40.2617H462.543L466.34 45.6289L470.102 40.2617H471.379L467.008 46.4492L471.695 53H470.348L466.34 47.3164L462.309 53H461.031L465.648 46.4492ZM475.797 50.2109L475.938 50.457C475.352 52.5273 474.672 54.4062 473.898 56.0938H473.137C473.738 53.9453 474.168 51.9844 474.426 50.2109H475.797ZM486.871 40.2617V48.5117C486.871 49.793 487.141 50.7266 487.68 51.3125C488.219 51.8906 489.055 52.1797 490.188 52.1797C491.703 52.1797 492.816 51.7969 493.527 51.0312C494.246 50.2656 494.605 49.0195 494.605 47.293V40.2617H495.754V53H494.77L494.559 51.2422H494.488C493.66 52.5703 492.188 53.2344 490.07 53.2344C487.172 53.2344 485.723 51.6836 485.723 48.582V40.2617H486.871ZM501.18 53H500.02V40.2617H501.18V53ZM499.855 36.7227C499.855 35.9727 500.102 35.5977 500.594 35.5977C500.836 35.5977 501.023 35.6953 501.156 35.8906C501.297 36.0859 501.367 36.3633 501.367 36.7227C501.367 37.0742 501.297 37.3516 501.156 37.5547C501.023 37.7578 500.836 37.8594 500.594 37.8594C500.102 37.8594 499.855 37.4805 499.855 36.7227Z" fill="white"/>
</svg>
